<svg width="42" height="42" viewBox="0 0 42 42" fill="none" xmlns="http://www.w3.org/2000/svg">
<path d="M40.7678 4.76777C41.7441 3.79146 41.7441 2.20854 40.7678 1.23223C39.7915 0.255922 38.2085 0.255922 37.2322 1.23223L40.7678 4.76777ZM0.5 39C0.5 40.3807 1.61929 41.5 3 41.5L25.5 41.5C26.8807 41.5 28 40.3807 28 39C28 37.6193 26.8807 36.5 25.5 36.5H5.5V16.5C5.5 15.1193 4.38071 14 3 14C1.61929 14 0.5 15.1193 0.5 16.5L0.5 39ZM37.2322 1.23223L1.23223 37.2322L4.76777 40.7678L40.7678 4.76777L37.2322 1.23223Z" fill="#44433F"/>
</svg>
