<svg width="42" height="42" viewBox="0 0 42 42" fill="none" xmlns="http://www.w3.org/2000/svg">
<g clip-path="url(#clip0_1_17)">
<path d="M21 25.3086C23.3785 25.3086 25.3066 23.3804 25.3066 21.002C25.3066 18.6235 23.3785 16.6953 21 16.6953C18.6215 16.6953 16.6934 18.6235 16.6934 21.002C16.6934 23.3804 18.6215 25.3086 21 25.3086Z" fill="#44433F"/>
<path d="M21 0.492188C9.67386 0.492188 0.492188 9.67386 0.492188 21C0.492188 32.3261 9.67386 41.5078 21 41.5078C32.3261 41.5078 41.5078 32.3261 41.5078 21C41.5078 9.67386 32.3261 0.492188 21 0.492188ZM33.6704 26.2123C33.5719 28.162 33.0241 30.0846 31.6032 31.4904C30.1686 32.9095 28.2368 33.4383 26.2683 33.5358H15.7318C13.763 33.4383 11.8315 32.9099 10.3969 31.4904C8.97594 30.0846 8.42814 28.162 8.3297 26.2123V15.7877C8.42814 13.838 8.97602 11.9154 10.3969 10.5095C11.8315 9.09037 13.7633 8.5616 15.7318 8.46423H26.2682C28.237 8.5616 30.1685 9.09013 31.6031 10.5095C33.0241 11.9154 33.5719 13.838 33.6703 15.7877L33.6704 26.2123Z" fill="#44433F"/>
<path d="M26.1352 10.834C23.5688 10.7637 18.432 10.7637 15.8655 10.834C14.53 10.8707 13.0159 11.2032 12.0644 12.2195C11.0756 13.276 10.7019 14.5524 10.664 15.9803C10.5974 18.4866 10.664 26.0088 10.664 26.0088C10.7074 27.4366 11.0756 28.7132 12.0644 29.7696C13.0159 30.7863 14.53 31.1185 15.8655 31.1551C18.432 31.2255 23.5688 31.2255 26.1352 31.1551C27.4707 31.1185 28.9848 30.786 29.9363 29.7696C30.9251 28.7132 31.2988 27.4368 31.3367 26.0088V15.9803C31.2988 14.5524 30.9251 13.276 29.9363 12.2195C28.9845 11.2028 27.4704 10.8707 26.1352 10.834ZM21 27.6699C19.6798 27.6699 18.3892 27.2784 17.2914 26.5449C16.1937 25.8114 15.3381 24.7689 14.8329 23.5491C14.3276 22.3294 14.1954 20.9872 14.453 19.6923C14.7106 18.3974 15.3463 17.208 16.2799 16.2744C17.2134 15.3409 18.4029 14.7051 19.6977 14.4476C20.9926 14.19 22.3348 14.3222 23.5545 14.8274C24.7743 15.3327 25.8168 16.1883 26.5503 17.286C27.2838 18.3837 27.6753 19.6743 27.6753 20.9946C27.6753 22.765 26.972 24.4629 25.7202 25.7147C24.4683 26.9666 22.7704 27.6699 21 27.6699ZM27.7037 15.6972C27.4397 15.6971 27.1816 15.6188 26.9621 15.472C26.7426 15.3253 26.5715 15.1168 26.4705 14.8728C26.3695 14.6288 26.3431 14.3604 26.3947 14.1015C26.4462 13.8425 26.5734 13.6047 26.7601 13.418C26.9468 13.2313 27.1847 13.1042 27.4437 13.0527C27.7027 13.0012 27.9711 13.0277 28.215 13.1287C28.4589 13.2298 28.6674 13.4009 28.8141 13.6204C28.9608 13.84 29.0391 14.0981 29.0391 14.3621C29.0391 14.5375 29.0045 14.7111 28.9374 14.8731C28.8703 15.0351 28.7719 15.1823 28.6479 15.3063C28.5239 15.4302 28.3767 15.5286 28.2147 15.5956C28.0527 15.6627 27.879 15.6972 27.7037 15.6972Z" fill="#44433F"/>
</g>
<defs>
<clipPath id="clip0_1_17">
<rect width="42" height="42" fill="white"/>
</clipPath>
</defs>
</svg>
