<svg width="48" height="48" viewBox="0 0 48 48" fill="none" xmlns="http://www.w3.org/2000/svg">
<path d="M42.9568 47.0432C44.0852 48.1716 45.9148 48.1716 47.0432 47.0432C48.1716 45.9148 48.1716 44.0852 47.0432 42.9568L42.9568 47.0432ZM3.39182 0.50236C1.79601 0.50236 0.50236 1.79601 0.50236 3.39182L0.50236 29.3969C0.50236 30.9927 1.79601 32.2864 3.39182 32.2864C4.98762 32.2864 6.28127 30.9927 6.28127 29.3969L6.28127 6.28127L29.3969 6.28127C30.9927 6.28127 32.2864 4.98762 32.2864 3.39182C32.2864 1.79601 30.9927 0.50236 29.3969 0.50236L3.39182 0.50236ZM47.0432 42.9568L5.43497 1.34866L1.34866 5.43497L42.9568 47.0432L47.0432 42.9568Z" fill="#44433F"/>
</svg>
