<svg width="51" height="50" viewBox="0 0 51 50" fill="none" xmlns="http://www.w3.org/2000/svg">
<g clip-path="url(#clip0_1_91)">
<path d="M25.1904 30.1289C28.022 30.1289 30.3174 27.8335 30.3174 25.002C30.3174 22.1704 28.022 19.875 25.1904 19.875C22.3589 19.875 20.0635 22.1704 20.0635 25.002C20.0635 27.8335 22.3589 30.1289 25.1904 30.1289Z" fill="#44433F"/>
<path d="M25.1904 0.585938C11.7069 0.585938 0.776367 11.5165 0.776367 25C0.776367 38.4835 11.7069 49.4141 25.1904 49.4141C38.6739 49.4141 49.6045 38.4835 49.6045 25C49.6045 11.5165 38.6739 0.585938 25.1904 0.585938ZM40.2742 31.2051C40.157 33.5262 39.5048 35.815 37.8133 37.4886C36.1054 39.178 33.8057 39.8075 31.4622 39.9235H18.9187C16.575 39.8075 14.2756 39.1784 12.5677 37.4886C10.8761 35.815 10.2239 33.5262 10.1067 31.2051V18.7949C10.2239 16.4738 10.8762 14.185 12.5677 12.5113C14.2756 10.8219 16.5753 10.1924 18.9187 10.0765H31.4621C33.8059 10.1924 36.1053 10.8216 37.8132 12.5113C39.5048 14.185 40.1569 16.4738 40.2741 18.7949L40.2742 31.2051Z" fill="#44433F"/>
<path d="M31.3037 12.9027C28.2484 12.8189 22.1332 12.8189 19.0779 12.9027C17.488 12.9463 15.6855 13.3421 14.5527 14.5521C13.3756 15.8098 12.9308 17.3293 12.8856 19.0292C12.8063 22.0128 12.8856 30.9679 12.8856 30.9679C12.9373 32.6676 13.3756 34.1874 14.5527 35.4451C15.6855 36.6554 17.488 37.0508 19.0779 37.0945C22.1332 37.1783 28.2484 37.1783 31.3037 37.0945C32.8937 37.0508 34.6961 36.655 35.8289 35.4451C37.0061 34.1874 37.4509 32.6678 37.496 30.9679V19.0292C37.4509 17.3293 37.0061 15.8098 35.8289 14.5521C34.6957 13.3417 32.8933 12.9463 31.3037 12.9027ZM25.1904 32.9454C23.6187 32.9454 22.0823 32.4793 20.7754 31.6061C19.4686 30.7329 18.45 29.4918 17.8486 28.0397C17.2471 26.5876 17.0897 24.9898 17.3963 23.4482C17.703 21.9067 18.4598 20.4907 19.5712 19.3794C20.6826 18.268 22.0986 17.5111 23.6401 17.2045C25.1816 16.8979 26.7794 17.0552 28.2315 17.6567C29.6836 18.2582 30.9247 19.2767 31.7979 20.5836C32.6711 21.8904 33.1372 23.4269 33.1372 24.9986C33.1372 27.1062 32.3 29.1275 30.8096 30.6178C29.3193 32.1081 27.298 32.9454 25.1904 32.9454ZM33.171 18.6921C32.8567 18.6921 32.5494 18.5988 32.2881 18.4241C32.0268 18.2494 31.8231 18.0012 31.7029 17.7107C31.5827 17.4203 31.5512 17.1008 31.6126 16.7925C31.674 16.4842 31.8254 16.201 32.0477 15.9788C32.27 15.7566 32.5532 15.6052 32.8615 15.5439C33.1698 15.4826 33.4893 15.5141 33.7797 15.6344C34.0701 15.7548 34.3183 15.9585 34.4929 16.2198C34.6675 16.4812 34.7607 16.7885 34.7607 17.1028C34.7607 17.3115 34.7196 17.5182 34.6397 17.7111C34.5598 17.9039 34.4427 18.0792 34.2951 18.2268C34.1475 18.3744 33.9722 18.4914 33.7793 18.5713C33.5865 18.6511 33.3797 18.6922 33.171 18.6921Z" fill="#44433F"/>
</g>
<defs>
<clipPath id="clip0_1_91">
<rect width="50" height="50" fill="white" transform="translate(0.19043)"/>
</clipPath>
</defs>
</svg>
