<svg width="42" height="42" viewBox="0 0 42 42" fill="none" xmlns="http://www.w3.org/2000/svg">
<g clip-path="url(#clip0_1_127)">
<path d="M21 25.3086C23.3785 25.3086 25.3066 23.3804 25.3066 21.002C25.3066 18.6235 23.3785 16.6953 21 16.6953C18.6215 16.6953 16.6934 18.6235 16.6934 21.002C16.6934 23.3804 18.6215 25.3086 21 25.3086Z" fill="#F7F4EA"/>
<path d="M21 0.492188C9.67386 0.492188 0.492188 9.67386 0.492188 21C0.492188 32.3261 9.67386 41.5078 21 41.5078C32.3261 41.5078 41.5078 32.3261 41.5078 21C41.5078 9.67386 32.3261 0.492188 21 0.492188ZM33.6704 26.2123C33.5719 28.162 33.0241 30.0846 31.6032 31.4904C30.1686 32.9095 28.2368 33.4383 26.2683 33.5358H15.7318C13.763 33.4383 11.8315 32.9099 10.3969 31.4904C8.97594 30.0846 8.42814 28.162 8.3297 26.2123V15.7877C8.42814 13.838 8.97602 11.9154 10.3969 10.5095C11.8315 9.09037 13.7633 8.5616 15.7318 8.46423H26.2682C28.237 8.5616 30.1685 9.09013 31.6031 10.5095C33.0241 11.9154 33.5719 13.838 33.6703 15.7877L33.6704 26.2123Z" fill="#F7F4EA"/>
<path d="M26.1355 10.8379C23.5691 10.7676 18.4323 10.7676 15.8659 10.8379C14.5303 10.8746 13.0163 11.2071 12.0647 12.2235C11.0759 13.2799 10.7023 14.5563 10.6644 15.9843C10.5978 18.4905 10.6644 26.0127 10.6644 26.0127C10.7078 27.4405 11.0759 28.7171 12.0647 29.7735C13.0163 30.7902 14.5303 31.1224 15.8659 31.1591C18.4323 31.2294 23.5691 31.2294 26.1355 31.1591C27.4711 31.1224 28.9851 30.7899 29.9367 29.7735C30.9255 28.7171 31.2992 27.4407 31.3371 26.0127V15.9843C31.2992 14.5563 30.9255 13.2799 29.9367 12.2235C28.9848 11.2068 27.4708 10.8746 26.1355 10.8379ZM21.0004 27.6738C19.6801 27.6738 18.3895 27.2823 17.2918 26.5488C16.194 25.8153 15.3385 24.7728 14.8332 23.553C14.328 22.3333 14.1958 20.9911 14.4534 19.6962C14.7109 18.4013 15.3467 17.2119 16.2802 16.2784C17.2138 15.3448 18.4032 14.709 19.6981 14.4515C20.993 14.1939 22.3352 14.3261 23.5549 14.8313C24.7747 15.3366 25.8172 16.1922 26.5507 17.2899C27.2842 18.3876 27.6757 19.6782 27.6757 20.9985C27.6757 22.7689 26.9724 24.4668 25.7205 25.7186C24.4687 26.9705 22.7708 27.6738 21.0004 27.6738ZM27.7041 15.7011C27.44 15.701 27.1819 15.6227 26.9624 15.4759C26.7429 15.3292 26.5719 15.1207 26.4709 14.8767C26.3699 14.6327 26.3435 14.3643 26.395 14.1054C26.4466 13.8464 26.5738 13.6086 26.7605 13.4219C26.9472 13.2352 27.1851 13.1081 27.4441 13.0566C27.703 13.0051 27.9714 13.0316 28.2154 13.1326C28.4593 13.2337 28.6678 13.4048 28.8145 13.6243C28.9612 13.8439 29.0395 14.102 29.0395 14.366C29.0395 14.5414 29.0049 14.715 28.9378 14.877C28.8707 15.039 28.7723 15.1862 28.6483 15.3102C28.5243 15.4341 28.3771 15.5325 28.2151 15.5996C28.0531 15.6666 27.8794 15.7011 27.7041 15.7011Z" fill="#F7F4EA"/>
</g>
<defs>
<clipPath id="clip0_1_127">
<rect width="42" height="42" fill="white"/>
</clipPath>
</defs>
</svg>
