<svg width="50" height="50" viewBox="0 0 50 50" fill="none" xmlns="http://www.w3.org/2000/svg">
<g clip-path="url(#clip0_1_119)">
<path d="M24.7845 0C11.0985 0 0 11.195 0 25C0 38.805 11.0985 50 24.7845 50C38.4705 50 49.569 38.805 49.569 25C49.569 11.195 38.4705 0 24.7845 0ZM17.5824 37.793H11.5463V19.4752H17.5824V37.793ZM14.5645 16.9739H14.5252C12.4996 16.9739 11.1896 15.5674 11.1896 13.8096C11.1896 12.0121 12.5397 10.6445 14.6046 10.6445C16.6695 10.6445 17.9402 12.0121 17.9795 13.8096C17.9795 15.5674 16.6695 16.9739 14.5645 16.9739ZM39.3475 37.793H33.3121V27.9934C33.3121 25.5306 32.4381 23.851 30.2541 23.851C28.5867 23.851 27.5936 24.984 27.1572 26.0777C26.9976 26.469 26.9586 27.0161 26.9586 27.5635V37.793H20.9229C20.9229 37.793 21.0019 21.1937 20.9229 19.4752H26.9586V22.0688C27.7608 20.8206 29.196 19.0453 32.3984 19.0453C36.3697 19.0453 39.3475 21.6633 39.3475 27.2896V37.793Z" fill="#44433F"/>
</g>
<defs>
<clipPath id="clip0_1_119">
<rect width="49.569" height="50" fill="white"/>
</clipPath>
</defs>
</svg>
