<svg width="48" height="48" viewBox="0 0 48 48" fill="none" xmlns="http://www.w3.org/2000/svg">
<path d="M42.9568 0.956845C44.0852 -0.171558 45.9148 -0.171558 47.0432 0.956845C48.1716 2.08525 48.1716 3.91475 47.0432 5.04315L42.9568 0.956845ZM3.39182 47.4976C1.79601 47.4976 0.50236 46.204 0.50236 44.6082L0.50236 18.6031C0.50236 17.0073 1.79601 15.7136 3.39182 15.7136C4.98762 15.7136 6.28127 17.0073 6.28127 18.6031L6.28127 41.7187L29.3969 41.7187C30.9927 41.7187 32.2864 43.0124 32.2864 44.6082C32.2864 46.204 30.9927 47.4976 29.3969 47.4976L3.39182 47.4976ZM47.0432 5.04315L5.43497 46.6513L1.34866 42.565L42.9568 0.956845L47.0432 5.04315Z" fill="#44433F"/>
</svg>
