<svg width="42" height="42" viewBox="0 0 42 42" fill="none" xmlns="http://www.w3.org/2000/svg">
<g clip-path="url(#clip0_1_88)">
<path d="M21 25.3086C23.3785 25.3086 25.3066 23.3804 25.3066 21.002C25.3066 18.6235 23.3785 16.6953 21 16.6953C18.6215 16.6953 16.6934 18.6235 16.6934 21.002C16.6934 23.3804 18.6215 25.3086 21 25.3086Z" fill="#F7F4EA"/>
<path d="M21 0.492188C9.67386 0.492188 0.492188 9.67386 0.492188 21C0.492188 32.3261 9.67386 41.5078 21 41.5078C32.3261 41.5078 41.5078 32.3261 41.5078 21C41.5078 9.67386 32.3261 0.492188 21 0.492188ZM33.6704 26.2123C33.5719 28.162 33.0241 30.0846 31.6032 31.4904C30.1686 32.9095 28.2368 33.4383 26.2683 33.5358H15.7318C13.763 33.4383 11.8315 32.9099 10.3969 31.4904C8.97594 30.0846 8.42814 28.162 8.3297 26.2123V15.7877C8.42814 13.838 8.97602 11.9154 10.3969 10.5095C11.8315 9.09037 13.7633 8.5616 15.7318 8.46423H26.2682C28.237 8.5616 30.1685 9.09013 31.6031 10.5095C33.0241 11.9154 33.5719 13.838 33.6703 15.7877L33.6704 26.2123Z" fill="#F7F4EA"/>
<path d="M26.1352 10.8379C23.5688 10.7676 18.432 10.7676 15.8655 10.8379C14.53 10.8746 13.0159 11.2071 12.0644 12.2235C11.0756 13.2799 10.7019 14.5563 10.664 15.9843C10.5974 18.4905 10.664 26.0127 10.664 26.0127C10.7074 27.4405 11.0756 28.7171 12.0644 29.7735C13.0159 30.7902 14.53 31.1224 15.8655 31.1591C18.432 31.2294 23.5688 31.2294 26.1352 31.1591C27.4707 31.1224 28.9848 30.7899 29.9363 29.7735C30.9251 28.7171 31.2988 27.4407 31.3367 26.0127V15.9843C31.2988 14.5563 30.9251 13.2799 29.9363 12.2235C28.9845 11.2068 27.4704 10.8746 26.1352 10.8379ZM21 27.6738C19.6798 27.6738 18.3892 27.2823 17.2914 26.5488C16.1937 25.8153 15.3381 24.7728 14.8329 23.553C14.3276 22.3333 14.1954 20.9911 14.453 19.6962C14.7106 18.4013 15.3463 17.2119 16.2799 16.2784C17.2134 15.3448 18.4029 14.709 19.6977 14.4515C20.9926 14.1939 22.3348 14.3261 23.5545 14.8313C24.7743 15.3366 25.8168 16.1922 26.5503 17.2899C27.2838 18.3876 27.6753 19.6782 27.6753 20.9985C27.6753 22.7689 26.972 24.4668 25.7202 25.7186C24.4683 26.9705 22.7704 27.6738 21 27.6738ZM27.7037 15.7011C27.4397 15.701 27.1816 15.6227 26.9621 15.4759C26.7426 15.3292 26.5715 15.1207 26.4705 14.8767C26.3695 14.6327 26.3431 14.3643 26.3947 14.1054C26.4462 13.8464 26.5734 13.6086 26.7601 13.4219C26.9468 13.2352 27.1847 13.1081 27.4437 13.0566C27.7027 13.0051 27.9711 13.0316 28.215 13.1326C28.4589 13.2337 28.6674 13.4048 28.8141 13.6243C28.9608 13.8439 29.0391 14.102 29.0391 14.366C29.0391 14.5414 29.0045 14.715 28.9374 14.877C28.8703 15.039 28.7719 15.1862 28.6479 15.3102C28.5239 15.4341 28.3767 15.5325 28.2147 15.5996C28.0527 15.6666 27.879 15.7011 27.7037 15.7011Z" fill="#F7F4EA"/>
</g>
<defs>
<clipPath id="clip0_1_88">
<rect width="42" height="42" fill="white"/>
</clipPath>
</defs>
</svg>
