<svg width="48" height="49" viewBox="0 0 48 49" fill="none" xmlns="http://www.w3.org/2000/svg">
<path d="M42.9569 47.5041C44.0853 48.6325 45.9148 48.6325 47.0432 47.5041C48.1716 46.3757 48.1716 44.5462 47.0432 43.4178L42.9569 47.5041ZM3.39185 0.963298C1.79604 0.963298 0.502391 2.25695 0.502391 3.85275L0.502391 29.8579C0.502391 31.4537 1.79604 32.7473 3.39185 32.7473C4.98765 32.7473 6.2813 31.4537 6.2813 29.8579L6.2813 6.74221L29.397 6.74221C30.9928 6.74221 32.2864 5.44856 32.2864 3.85275C32.2864 2.25695 30.9928 0.963298 29.397 0.963298L3.39185 0.963298ZM47.0432 43.4178L5.435 1.8096L1.34869 5.89591L42.9569 47.5041L47.0432 43.4178Z" fill="#44433F"/>
</svg>
