<svg width="48" height="49" viewBox="0 0 48 49" fill="none" xmlns="http://www.w3.org/2000/svg">
<path d="M42.9568 47.5041C44.0852 48.6325 45.9148 48.6325 47.0432 47.5041C48.1716 46.3757 48.1716 44.5462 47.0432 43.4178L42.9568 47.5041ZM3.39182 0.963298C1.79601 0.963298 0.50236 2.25695 0.50236 3.85275L0.50236 29.8579C0.50236 31.4537 1.79601 32.7473 3.39182 32.7473C4.98762 32.7473 6.28127 31.4537 6.28127 29.8579L6.28127 6.74221L29.3969 6.74221C30.9927 6.74221 32.2864 5.44856 32.2864 3.85275C32.2864 2.25695 30.9927 0.963298 29.3969 0.963298L3.39182 0.963298ZM47.0432 43.4178L5.43497 1.8096L1.34866 5.89591L42.9568 47.5041L47.0432 43.4178Z" fill="#44433F"/>
</svg>
