<svg width="42" height="42" viewBox="0 0 42 42" fill="none" xmlns="http://www.w3.org/2000/svg">
<g clip-path="url(#clip0_1_18)">
<path d="M21 25.3086C23.3785 25.3086 25.3066 23.3804 25.3066 21.002C25.3066 18.6235 23.3785 16.6953 21 16.6953C18.6215 16.6953 16.6934 18.6235 16.6934 21.002C16.6934 23.3804 18.6215 25.3086 21 25.3086Z" fill="#44433F"/>
<path d="M21 0.492188C9.67386 0.492188 0.492188 9.67386 0.492188 21C0.492188 32.3261 9.67386 41.5078 21 41.5078C32.3261 41.5078 41.5078 32.3261 41.5078 21C41.5078 9.67386 32.3261 0.492188 21 0.492188ZM33.6704 26.2123C33.5719 28.162 33.0241 30.0846 31.6032 31.4904C30.1686 32.9095 28.2368 33.4383 26.2683 33.5358H15.7318C13.763 33.4383 11.8315 32.9099 10.3969 31.4904C8.97594 30.0846 8.42814 28.162 8.3297 26.2123V15.7877C8.42814 13.838 8.97602 11.9154 10.3969 10.5095C11.8315 9.09037 13.7633 8.5616 15.7318 8.46423H26.2682C28.237 8.5616 30.1685 9.09013 31.6031 10.5095C33.0241 11.9154 33.5719 13.838 33.6703 15.7877L33.6704 26.2123Z" fill="#44433F"/>
<path d="M26.1355 10.834C23.5691 10.7637 18.4323 10.7637 15.8659 10.834C14.5303 10.8707 13.0163 11.2032 12.0647 12.2195C11.0759 13.276 10.7023 14.5524 10.6644 15.9803C10.5978 18.4866 10.6644 26.0088 10.6644 26.0088C10.7078 27.4366 11.0759 28.7132 12.0647 29.7696C13.0163 30.7863 14.5303 31.1185 15.8659 31.1551C18.4323 31.2255 23.5691 31.2255 26.1355 31.1551C27.4711 31.1185 28.9851 30.786 29.9367 29.7696C30.9255 28.7132 31.2992 27.4368 31.3371 26.0088V15.9803C31.2992 14.5524 30.9255 13.276 29.9367 12.2195C28.9848 11.2028 27.4708 10.8707 26.1355 10.834ZM21.0004 27.6699C19.6801 27.6699 18.3895 27.2784 17.2918 26.5449C16.194 25.8114 15.3385 24.7689 14.8332 23.5491C14.328 22.3294 14.1958 20.9872 14.4534 19.6923C14.7109 18.3974 15.3467 17.208 16.2802 16.2744C17.2138 15.3409 18.4032 14.7051 19.6981 14.4476C20.993 14.19 22.3352 14.3222 23.5549 14.8274C24.7747 15.3327 25.8172 16.1883 26.5507 17.286C27.2842 18.3837 27.6757 19.6743 27.6757 20.9946C27.6757 22.765 26.9724 24.4629 25.7205 25.7147C24.4687 26.9666 22.7708 27.6699 21.0004 27.6699ZM27.7041 15.6972C27.44 15.6971 27.1819 15.6188 26.9624 15.472C26.7429 15.3253 26.5719 15.1168 26.4709 14.8728C26.3699 14.6288 26.3435 14.3604 26.395 14.1015C26.4466 13.8425 26.5738 13.6047 26.7605 13.418C26.9472 13.2313 27.1851 13.1042 27.4441 13.0527C27.703 13.0012 27.9714 13.0277 28.2154 13.1287C28.4593 13.2298 28.6678 13.4009 28.8145 13.6204C28.9612 13.84 29.0395 14.0981 29.0395 14.3621C29.0395 14.5375 29.0049 14.7111 28.9378 14.8731C28.8707 15.0351 28.7723 15.1823 28.6483 15.3063C28.5243 15.4302 28.3771 15.5286 28.2151 15.5956C28.0531 15.6627 27.8794 15.6972 27.7041 15.6972Z" fill="#44433F"/>
</g>
<defs>
<clipPath id="clip0_1_18">
<rect width="42" height="42" fill="white"/>
</clipPath>
</defs>
</svg>
