<svg width="66" height="44" viewBox="0 0 66 44" fill="none" xmlns="http://www.w3.org/2000/svg">
<path d="M3.38281 19.1105C1.78701 19.1105 0.493356 20.4042 0.493356 22C0.493356 23.5958 1.78701 24.8895 3.38281 24.8895V19.1105ZM64.2688 24.0432C65.3972 22.9148 65.3972 21.0852 64.2688 19.9568L45.8804 1.56845C44.752 0.440051 42.9225 0.440051 41.7941 1.56845C40.6657 2.69686 40.6657 4.52636 41.7941 5.65476L58.1394 22L41.7941 38.3452C40.6657 39.4736 40.6657 41.3031 41.7941 42.4315C42.9225 43.5599 44.752 43.5599 45.8804 42.4315L64.2688 24.0432ZM3.38281 24.8895L62.2257 24.8895V19.1105L3.38281 19.1105V24.8895Z" fill="#44433F"/>
</svg>
