<svg width="66" height="44" viewBox="0 0 66 44" fill="none" xmlns="http://www.w3.org/2000/svg">
<path d="M62.6172 19.1105C64.213 19.1105 65.5066 20.4042 65.5066 22C65.5066 23.5958 64.213 24.8895 62.6172 24.8895V19.1105ZM1.73118 24.0432C0.602772 22.9148 0.602772 21.0852 1.73118 19.9568L20.1196 1.56845C21.248 0.440051 23.0775 0.440051 24.2059 1.56845C25.3343 2.69686 25.3343 4.52636 24.2059 5.65476L7.86064 22L24.2059 38.3452C25.3343 39.4736 25.3343 41.3031 24.2059 42.4315C23.0775 43.5599 21.248 43.5599 20.1196 42.4315L1.73118 24.0432ZM62.6172 24.8895L3.77433 24.8895V19.1105L62.6172 19.1105V24.8895Z" fill="#44433F"/>
</svg>
